<svg width="4530" height="1492" xmlns="http://www.w3.org/2000/svg" xmlns:xlink="http://www.w3.org/1999/xlink" xml:space="preserve" overflow="hidden"><defs><clipPath id="clip0"><rect x="-294" y="413" width="4530" height="1492"/></clipPath></defs><g clip-path="url(#clip0)" transform="translate(294 -413)"><text font-family="Calibri,Calibri_MSFontService,sans-serif" font-weight="400" font-size="83" transform="matrix(1 0 0 1 1184.55 953)">Move [</text><text font-family="Calibri,Calibri_MSFontService,sans-serif" font-style="italic" font-weight="400" font-size="83" transform="matrix(1 0 0 1 1420 953)">verb</text><text font-family="Calibri,Calibri_MSFontService,sans-serif" font-weight="400" font-size="83" transform="matrix(1 0 0 1 1566.67 953)">]</text><text font-family="Calibri,Calibri_MSFontService,sans-serif" font-weight="400" font-size="83" transform="matrix(1 0 0 1 609.23 1107)">robot [</text><text font-family="Calibri,Calibri_MSFontService,sans-serif" font-style="italic" font-weight="400" font-size="83" transform="matrix(1 0 0 1 838.787 1107)">noun</text><text font-family="Calibri,Calibri_MSFontService,sans-serif" font-weight="400" font-size="83" transform="matrix(1 0 0 1 1008.37 1107)">]                                        point [</text><text font-family="Calibri,Calibri_MSFontService,sans-serif" font-style="italic" font-weight="400" font-size="83" transform="matrix(1 0 0 1 2010.22 1107)">noun</text><text font-family="Calibri,Calibri_MSFontService,sans-serif" font-weight="400" font-size="83" transform="matrix(1 0 0 1 2179.8 1107)">]</text><text font-family="Calibri,Calibri_MSFontService,sans-serif" font-weight="400" font-size="83" transform="matrix(1 0 0 1 544.078 1305)">the [</text><text font-family="Calibri,Calibri_MSFontService,sans-serif" font-style="italic" font-weight="400" font-size="83" transform="matrix(1 0 0 1 700.485 1305)">determinant</text><text font-family="Calibri,Calibri_MSFontService,sans-serif" font-weight="400" font-size="83" transform="matrix(1 0 0 1 1114.29 1305)">]         towards [</text><text font-family="Calibri,Calibri_MSFontService,sans-serif" font-style="italic" font-weight="400" font-size="83" transform="matrix(1 0 0 1 1624.46 1305)">preposition</text><text font-family="Calibri,Calibri_MSFontService,sans-serif" font-weight="400" font-size="83" transform="matrix(1 0 0 1 2001.44 1305)">]     0 [</text><text font-family="Calibri,Calibri_MSFontService,sans-serif" font-style="italic" font-weight="400" font-size="83" transform="matrix(1 0 0 1 2207.12 1305)">cardinal number</text><text font-family="Calibri,Calibri_MSFontService,sans-serif" font-weight="400" font-size="83" transform="matrix(1 0 0 1 2755.44 1305)">]</text><text font-family="Calibri,Calibri_MSFontService,sans-serif" font-weight="400" font-size="83" transform="matrix(1 0 0 1 523.455 515)">Move the robot towards point 0, then grab the object</text><path d="M1523.94 605.5 1523.94 825.914 1517.06 825.914 1517.06 605.5ZM1534.25 821.33 1520.5 848.83 1506.75 821.33Z"/><path d="M2.07433-2.74109 124.145 89.6367 119.997 95.1189-2.07433 2.74109ZM126.714 78.6477 140.345 106.207 110.119 100.576Z" transform="matrix(-1 0 0 1 1194.85 972.5)"/><path d="M1599.32 969.581 1750.55 1063.68 1746.92 1069.52 1595.68 975.419ZM1752.1 1052.5 1768.19 1078.71 1737.58 1075.85Z"/><path d="M811.938 1128.5 811.938 1223.17 805.063 1223.17 805.062 1128.5ZM822.25 1218.59 808.5 1246.09 794.75 1218.59Z"/><path d="M3.01469-1.65167 56.4261 95.8367 50.3967 99.14-3.01469 1.65167ZM63.2679 86.8621 64.4225 117.586 39.1504 100.075Z" transform="matrix(-1 0 0 1 1916.92 1128.5)"/><path d="M2195.35 1126.57 2262.15 1225.19 2256.46 1229.04 2189.65 1130.43ZM2268.12 1215.61 2272.16 1246.09 2245.35 1231.03Z"/><text font-family="Calibri,Calibri_MSFontService,sans-serif" font-weight="400" font-size="83" transform="matrix(1 0 0 1 3169.91 1437)">Grab [</text><text font-family="Calibri,Calibri_MSFontService,sans-serif" font-style="italic" font-weight="400" font-size="83" transform="matrix(1 0 0 1 3376.18 1437)">verb</text><text font-family="Calibri,Calibri_MSFontService,sans-serif" font-weight="400" font-size="83" transform="matrix(1 0 0 1 3522.85 1437)">]</text><text font-family="Calibri,Calibri_MSFontService,sans-serif" font-weight="400" font-size="83" transform="matrix(1 0 0 1 2849.37 1635)">t</text><text font-family="Calibri,Calibri_MSFontService,sans-serif" font-weight="400" font-size="83" transform="matrix(1 0 0 1 2876.87 1635)">hen [</text><text font-family="Calibri,Calibri_MSFontService,sans-serif" font-style="italic" font-weight="400" font-size="83" transform="matrix(1 0 0 1 3049.32 1635)">adverb</text><text font-family="Calibri,Calibri_MSFontService,sans-serif" font-weight="400" font-size="83" transform="matrix(1 0 0 1 3280.78 1635)">]      object [</text><text font-family="Calibri,Calibri_MSFontService,sans-serif" font-style="italic" font-weight="400" font-size="83" transform="matrix(1 0 0 1 3673.8 1635)">noun</text><text font-family="Calibri,Calibri_MSFontService,sans-serif" font-weight="400" font-size="83" transform="matrix(1 0 0 1 3843.38 1635)">]</text><text font-family="Calibri,Calibri_MSFontService,sans-serif" font-weight="400" font-size="83" transform="matrix(1 0 0 1 3382.69 1833)">the [</text><text font-family="Calibri,Calibri_MSFontService,sans-serif" font-style="italic" font-weight="400" font-size="83" transform="matrix(1 0 0 1 3539.1 1833)">determinant</text><text font-family="Calibri,Calibri_MSFontService,sans-serif" font-weight="400" font-size="83" transform="matrix(1 0 0 1 3952.9 1833)">]           </text><path d="M2.07433-2.74109 124.145 89.6367 119.997 95.1189-2.07433 2.74109ZM126.714 78.6477 140.345 106.207 110.119 100.576Z" transform="matrix(-1 0 0 1 3282.84 1472.5)"/><path d="M3484.47 1469.68 3621.21 1565.39 3617.27 1571.02 3480.53 1475.32ZM3623.37 1554.31 3638.02 1581.35 3607.6 1576.84Z"/><path d="M3635.94 1677.5 3635.94 1772.17 3629.06 1772.17 3629.06 1677.5ZM3646.25 1767.59 3632.5 1795.09 3618.75 1767.59Z"/><path d="M3362.94 917.5 3362.94 1317.76 3356.06 1317.76 3356.06 917.5ZM3373.25 1313.18 3359.5 1340.68 3345.75 1313.18Z"/><path d="M1601.5 920.5 3359.85 920.5" stroke="#000000" stroke-width="6.875" stroke-miterlimit="8" fill="none" fill-rule="evenodd"/><text font-family="Calibri,Calibri_MSFontService,sans-serif" font-weight="400" font-size="83" transform="matrix(1 0 0 1 2274.24 888)">Relation: parataxis</text></g></svg>